<svg width="52" height="50" viewBox="0 0 52 50" fill="none" xmlns="http://www.w3.org/2000/svg">
<g filter="url(#filter0_d_36_329)">
<path d="M34.8963 32.3077C34.8963 32.6424 34.7982 32.9696 34.6145 33.2479C34.4308 33.5262 34.1698 33.7431 33.8643 33.8712C33.5588 33.9993 33.2227 34.0328 32.8984 33.9675C32.5742 33.9022 32.2763 33.741 32.0425 33.5043C31.8087 33.2677 31.6495 32.9661 31.585 32.6378C31.5205 32.3096 31.5536 31.9693 31.6801 31.6601C31.8066 31.3508 32.0209 31.0865 32.2958 30.9006C32.5707 30.7146 32.8939 30.6154 33.2246 30.6154C33.6679 30.6154 34.0931 30.7937 34.4066 31.111C34.7201 31.4284 34.8963 31.8589 34.8963 32.3077ZM22.3585 30.6154C22.0279 30.6154 21.7047 30.7146 21.4298 30.9006C21.1548 31.0865 20.9406 31.3508 20.8141 31.6601C20.6875 31.9693 20.6544 32.3096 20.7189 32.6378C20.7834 32.9661 20.9426 33.2677 21.1764 33.5043C21.4102 33.741 21.7081 33.9022 22.0324 33.9675C22.3567 34.0328 22.6928 33.9993 22.9982 33.8712C23.3037 33.7431 23.5648 33.5262 23.7485 33.2479C23.9322 32.9696 24.0302 32.6424 24.0302 32.3077C24.0302 31.8589 23.8541 31.4284 23.5406 31.111C23.2271 30.7937 22.8019 30.6154 22.3585 30.6154ZM37.8322 16.5692C37.7538 16.4647 37.6527 16.3799 37.5368 16.3212C37.4208 16.2625 37.2931 16.2316 37.1635 16.2308H19.0464L18.2001 13.2269C18.0987 12.874 17.8871 12.5638 17.5971 12.3427C17.3071 12.1215 16.9542 12.0013 16.5911 12H14.8359C14.6142 12 14.4016 12.0891 14.2448 12.2478C14.0881 12.4065 14 12.6217 14 12.8462C14 13.0706 14.0881 13.2858 14.2448 13.4445C14.4016 13.6032 14.6142 13.6923 14.8359 13.6923H16.5911L17.6151 17.299V17.3202L20.3734 27.0827C20.5248 27.6125 20.8419 28.0783 21.2771 28.4101C21.7123 28.7419 22.2421 28.9219 22.7869 28.9231H32.7962C33.341 28.9219 33.8708 28.7419 34.3059 28.4101C34.7411 28.0783 35.0582 27.6125 35.2097 27.0827L37.968 17.3096C38.0034 17.184 38.0095 17.0517 37.9859 16.9233C37.9624 16.7948 37.9098 16.6736 37.8322 16.5692Z" fill="url(#paint0_linear_36_329)"/>
</g>
<defs>
<filter id="filter0_d_36_329" x="0" y="0" width="52" height="50" filterUnits="userSpaceOnUse" color-interpolation-filters="sRGB">
<feFlood flood-opacity="0" result="BackgroundImageFix"/>
<feColorMatrix in="SourceAlpha" type="matrix" values="0 0 0 0 0 0 0 0 0 0 0 0 0 0 0 0 0 0 127 0" result="hardAlpha"/>
<feOffset dy="2"/>
<feGaussianBlur stdDeviation="7"/>
<feComposite in2="hardAlpha" operator="out"/>
<feColorMatrix type="matrix" values="0 0 0 0 0.141176 0 0 0 0 0.141176 0 0 0 0 0.996078 0 0 0 0.35 0"/>
<feBlend mode="normal" in2="BackgroundImageFix" result="effect1_dropShadow_36_329"/>
<feBlend mode="normal" in="SourceGraphic" in2="effect1_dropShadow_36_329" result="shape"/>
</filter>
<linearGradient id="paint0_linear_36_329" x1="40.1818" y1="14.2917" x2="15.1708" y2="37.3175" gradientUnits="userSpaceOnUse">
<stop stop-color="#2628FE"/>
<stop offset="1" stop-color="#6ED2F9"/>
</linearGradient>
</defs>
</svg>
