<svg width="61" height="50" viewBox="0 0 61 50" fill="none" xmlns="http://www.w3.org/2000/svg">
<g filter="url(#filter0_d_108_365)">
<path d="M41.5 31.25C43.0125 31.25 44.25 30.0125 44.25 28.5V14.75C44.25 13.2375 43.0125 12 41.5 12H19.5C17.9875 12 16.75 13.2375 16.75 14.75V28.5C16.75 29.2293 17.0397 29.9288 17.5555 30.4445C18.0712 30.9603 18.7707 31.25 19.5 31.25H15.375C14.6187 31.25 14 31.8687 14 32.625C14 33.3813 14.6187 34 15.375 34H45.625C46.3812 34 47 33.3813 47 32.625C47 31.8687 46.3812 31.25 45.625 31.25H41.5ZM31.875 26.3963V23.385C28.0525 23.385 25.5363 24.5538 23.625 27.125C24.395 23.4537 26.5262 19.7963 31.875 19.0538V16.125L36.8388 20.745C37.1275 21.02 37.1275 21.4738 36.8388 21.7488L31.875 26.3963Z" fill="url(#paint0_linear_108_365)"/>
</g>
<defs>
<filter id="filter0_d_108_365" x="0" y="0" width="61" height="50" filterUnits="userSpaceOnUse" color-interpolation-filters="sRGB">
<feFlood flood-opacity="0" result="BackgroundImageFix"/>
<feColorMatrix in="SourceAlpha" type="matrix" values="0 0 0 0 0 0 0 0 0 0 0 0 0 0 0 0 0 0 127 0" result="hardAlpha"/>
<feOffset dy="2"/>
<feGaussianBlur stdDeviation="7"/>
<feComposite in2="hardAlpha" operator="out"/>
<feColorMatrix type="matrix" values="0 0 0 0 0.141176 0 0 0 0 0.141176 0 0 0 0 0.996078 0 0 0 0.35 0"/>
<feBlend mode="normal" in2="BackgroundImageFix" result="effect1_dropShadow_108_365"/>
<feBlend mode="normal" in="SourceGraphic" in2="effect1_dropShadow_108_365" result="shape"/>
</filter>
<linearGradient id="paint0_linear_108_365" x1="50" y1="14.2917" x2="25.5851" y2="45.1977" gradientUnits="userSpaceOnUse">
<stop stop-color="#2628FE"/>
<stop offset="1" stop-color="#6ED2F9"/>
</linearGradient>
</defs>
</svg>
